<svg xmlns="http://www.w3.org/2000/svg" xmlns:xlink="http://www.w3.org/1999/xlink" version="1.1" width="256" height="256" viewBox="0 0 256 256" xml:space="preserve">

<defs>
</defs>
<g style="stroke: none; stroke-width: 0; stroke-dasharray: none; stroke-linecap: butt; stroke-linejoin: miter; stroke-miterlimit: 10; fill: none; fill-rule: nonzero; opacity: 1;" transform="translate(1.4065934065934016 1.4065934065934016) scale(2.81 2.81)" >
	<path d="M 35.69 90 c -0.112 0 -0.225 -0.019 -0.335 -0.058 c -0.435 -0.154 -0.707 -0.587 -0.66 -1.046 l 3.829 -36.944 l -19.177 3.695 c -0.395 0.073 -0.796 -0.092 -1.02 -0.426 c -0.224 -0.333 -0.226 -0.769 -0.006 -1.104 L 53.474 0.452 c 0.254 -0.387 0.737 -0.548 1.172 -0.395 c 0.435 0.155 0.707 0.586 0.66 1.045 l -3.829 36.944 l 19.176 -3.695 c 0.396 -0.078 0.796 0.091 1.021 0.425 c 0.224 0.333 0.226 0.769 0.006 1.104 L 36.526 89.548 C 36.337 89.836 36.02 90 35.69 90 z" style="stroke: none; stroke-width: 1; stroke-dasharray: none; stroke-linecap: butt; stroke-linejoin: miter; stroke-miterlimit: 10; fill: rgb(0,134,234); fill-rule: nonzero; opacity: 1;" transform=" matrix(1 0 0 1 0 0) " stroke-linecap="round" />
	<path d="M 54.775 82.091 c -0.876 0 -1.68 -0.58 -1.926 -1.465 c -0.296 -1.064 0.327 -2.167 1.391 -2.463 C 69.064 74.042 79.417 60.404 79.417 45 c 0 -11.136 -5.43 -21.637 -14.525 -28.09 c -0.901 -0.639 -1.113 -1.888 -0.474 -2.789 c 0.64 -0.901 1.887 -1.113 2.788 -0.474 C 77.356 20.85 83.417 32.57 83.417 45 c 0 17.194 -11.558 32.416 -28.104 37.017 C 55.133 82.066 54.952 82.091 54.775 82.091 z" style="stroke: none; stroke-width: 1; stroke-dasharray: none; stroke-linecap: butt; stroke-linejoin: miter; stroke-miterlimit: 10; fill: rgb(0,65,113); fill-rule: nonzero; opacity: 1;" transform=" matrix(1 0 0 1 0 0) " stroke-linecap="round" />
	<path d="M 24.926 77.391 c -0.379 0 -0.762 -0.107 -1.102 -0.332 C 13.028 69.913 6.583 57.929 6.583 45 c 0 -16.889 10.819 -31.624 26.922 -36.667 c 1.053 -0.329 2.176 0.257 2.506 1.311 s -0.257 2.176 -1.311 2.506 C 20.276 16.668 10.583 29.869 10.583 45 c 0 11.583 5.775 22.32 15.448 28.723 c 0.921 0.609 1.173 1.851 0.564 2.771 C 26.211 77.076 25.574 77.391 24.926 77.391 z" style="stroke: none; stroke-width: 1; stroke-dasharray: none; stroke-linecap: butt; stroke-linejoin: miter; stroke-miterlimit: 10; fill: rgb(0,65,113); fill-rule: nonzero; opacity: 1;" transform=" matrix(1 0 0 1 0 0) " stroke-linecap="round" />
</g>
</svg>